<?xml version="1.0" standalone="no"?>
<!DOCTYPE svg PUBLIC "-//W3C//DTD SVG 20010904//EN"
 "http://www.w3.org/TR/2001/REC-SVG-20010904/DTD/svg10.dtd">
<svg version="1.0" xmlns="http://www.w3.org/2000/svg"
 width="384.000000pt" height="384.000000pt" viewBox="0 0 384.000000 384.000000"
 preserveAspectRatio="xMidYMid meet">
<metadata>
Created by potrace 1.11, written by Peter Selinger 2001-2013
</metadata>
<g transform="translate(0.000000,384.000000) scale(0.100000,-0.100000)"
fill="#000000" stroke="none">
<path d="M2048 3135 c-14 -8 -384 -373 -821 -810 -603 -603 -797 -803 -802
-826 -16 -74 -25 -64 548 -637 567 -567 569 -569 640 -555 26 5 197 171 840
813 584 585 807 814 808 831 4 60 -1 192 -16 419 -8 113 -22 361 -31 520 -8
161 -36 195 -169 204 -106 8 -219 15 -335 21 -52 3 -131 7 -175 10 -426 26
-457 27 -487 10z m666 -460 c21 -9 47 -32 62 -55 22 -33 26 -48 22 -89 -11
-110 -117 -173 -211 -125 -112 58 -108 211 7 268 39 20 74 20 120 1z"/>
</g>
</svg>
